# xmcd
#
# Track frame offsets: 
#        150
#        20370
#        33957
#        47865
#        60150
#        73712
#        84222
#        95910
#        108117
#        119570
#        134117
#        146680
#        161872
#        179155
#        196120
#        213810
#        223772
#        235997
#        249270
#        263350
#
# Disc length: 3545 seconds
#
# Revision: 2
# Processed by: cddbd v1.5PL3 Copyright (c) Steve Scherf et al.
# Submitted via: ExactAudioCopy v0.95a4
#
DISCID=210dd714
DTITLE=Pacifik - Tulacky amulet
DYEAR=1900
DGENRE=
TTITLE0=Maly velky muz
TTITLE1=Vrbovy prouti
TTITLE2=Pod kridly labuti
TTITLE3=Ptaci kral
TTITLE4=Tam u novych mlynu
TTITLE5=Severak
TTITLE6=Dekujeme Vam pane Bach
TTITLE7=Orinoko
TTITLE8=Zebrinak
TTITLE9=Vzpominka na Karlin
TTITLE10=Kreolska divka
TTITLE11=Mlynky
TTITLE12=R.A.F
TTITLE13=Balada o Janu krali
TTITLE14=Chytnout jeste svitani
TTITLE15=Poslouchej  clovece
TTITLE16=Uniformy
TTITLE17=Jaro nad Bretani
TTITLE18=Tulacky amulet
TTITLE19=Maly velky muz tanci s vlkem
EXTD=
EXTT0=
EXTT1=
EXTT2=
EXTT3=
EXTT4=
EXTT5=
EXTT6=
EXTT7=
EXTT8=
EXTT9=
EXTT10=
EXTT11=
EXTT12=
EXTT13=
EXTT14=
EXTT15=
EXTT16=
EXTT17=
EXTT18=
EXTT19=
PLAYORDER=
